<svg width="40" height="40" viewBox="0 0 40 40" fill="none" xmlns="http://www.w3.org/2000/svg">
<path fill-rule="evenodd" clip-rule="evenodd" d="M16.5333 11.2856C11.8205 11.2856 8 15.1061 8 19.8189V28.6076C8 28.7053 8.12057 28.7516 8.18594 28.6789L11.36 25.1522H25.0667C28.8958 25.1522 32 22.0481 32 18.2189C32 14.3897 28.8958 11.2856 25.0667 11.2856H16.5333ZM17.0667 19.8189C17.9503 19.8189 18.6667 19.1025 18.6667 18.2189C18.6667 17.3352 17.9503 16.6189 17.0667 16.6189C16.183 16.6189 15.4667 17.3352 15.4667 18.2189C15.4667 19.1025 16.183 19.8189 17.0667 19.8189ZM25.0667 18.2189C25.0667 19.1025 24.3503 19.8189 23.4667 19.8189C22.583 19.8189 21.8667 19.1025 21.8667 18.2189C21.8667 17.3352 22.583 16.6189 23.4667 16.6189C24.3503 16.6189 25.0667 17.3352 25.0667 18.2189Z" fill="#FFF"/>
</svg>
